<svg xmlns="http://www.w3.org/2000/svg" width="246" height="180" viewBox="0 0 246 180"><rect width="100%" height="100%" fill="#DDDDDD"/><path fill="#999999" d="M61.335 92.46q.23 0 .41.18l1.11 1.21q-.92 1.14-2.27 1.75-1.35.61-3.24.61-1.69 0-3.04-.58t-2.31-1.61q-.95-1.03-1.46-2.45-.51-1.43-.51-3.12 0-1.71.54-3.14.55-1.42 1.54-2.45 1-1.03 2.37-1.6 1.38-.57 3.05-.57 1.65 0 2.94.54 1.29.55 2.19 1.43l-.94 1.32q-.09.12-.22.22-.13.09-.36.09-.16 0-.33-.09t-.37-.22q-.19-.13-.46-.29-.26-.16-.61-.29-.34-.13-.8-.22t-1.05-.09q-1.02 0-1.87.37-.84.36-1.45 1.05-.61.68-.95 1.68-.33.99-.33 2.26 0 1.28.36 2.28.36.99.98 1.68.62.68 1.46 1.04t1.81.36q.57 0 1.04-.06.47-.06.86-.2.4-.14.75-.35.35-.22.7-.53.1-.1.22-.15.11-.06.24-.06Zm3.08-12.02h2.6v15.6h-2.6v-15.6Zm5.28 4.83h2.6v10.77h-2.6V85.27Zm2.96-3.14q0 .33-.14.63-.14.29-.36.51-.23.22-.53.35-.31.13-.65.13t-.64-.13q-.3-.13-.52-.35-.22-.22-.35-.51-.13-.3-.13-.63 0-.35.13-.65.13-.31.35-.53.22-.22.52-.35.3-.13.64-.13t.65.13q.3.13.53.35.22.22.36.53.14.3.14.65Zm10.69 4.47-.69.95q-.11.14-.22.23-.11.08-.32.08-.2 0-.39-.12t-.45-.27q-.27-.16-.63-.28-.36-.12-.9-.12-.68 0-1.19.25-.52.25-.86.71-.34.46-.51 1.12-.17.65-.17 1.48 0 .86.19 1.54.18.67.53 1.12.34.46.84.7.49.23 1.11.23.62 0 1-.15.39-.15.65-.33.26-.19.46-.34.19-.15.43-.15.32 0 .47.24l.75.94q-.43.51-.93.85-.51.34-1.05.54-.54.21-1.11.29-.57.09-1.14.09-1 0-1.88-.38-.88-.37-1.54-1.08-.67-.72-1.05-1.75t-.38-2.36q0-1.18.34-2.2.34-1.01 1-1.75.66-.74 1.64-1.16.98-.42 2.25-.42 1.2 0 2.11.39.91.39 1.64 1.11Zm1.72-6.16h2.59v8.93h.48q.27 0 .42-.07.15-.06.31-.27l2.68-3.31q.16-.22.37-.34.2-.11.53-.11h2.37l-3.35 4q-.35.47-.77.72.22.16.39.37t.33.45l3.59 5.23h-2.34q-.31 0-.53-.1-.22-.1-.36-.36l-2.75-4.09q-.15-.24-.31-.31-.16-.08-.47-.08h-.59v4.94h-2.59v-15.6Zm27.34.42v2.32h-4.58v12.86h-2.82V83.18h-4.58v-2.32h11.98Zm6.35 4.24q1.2 0 2.18.39.98.39 1.68 1.1.7.71 1.08 1.74.37 1.03.37 2.3 0 1.28-.37 2.31-.38 1.03-1.08 1.76-.7.72-1.68 1.11-.98.39-2.18.39-1.21 0-2.19-.39-.99-.39-1.69-1.11-.7-.73-1.08-1.76-.38-1.03-.38-2.31 0-1.27.38-2.3.38-1.03 1.08-1.74.7-.71 1.69-1.1.98-.39 2.19-.39Zm0 9.1q1.35 0 1.99-.9.65-.9.65-2.65 0-1.74-.65-2.65-.64-.92-1.99-.92-1.36 0-2.02.92-.66.92-.66 2.65 0 1.74.66 2.64.66.91 2.02.91Zm18.92-.44q.82 0 1.47-.27.64-.27 1.08-.77.45-.49.68-1.2.24-.7.24-1.57v-9.09h2.82v9.09q0 1.35-.43 2.5-.44 1.15-1.25 1.99-.82.83-1.98 1.3-1.17.47-2.63.47-1.47 0-2.63-.47-1.17-.47-1.98-1.3-.82-.84-1.25-1.99-.44-1.15-.44-2.5v-9.09h2.83v9.08q0 .87.23 1.57.24.71.69 1.21.44.5 1.09.77.64.27 1.46.27Zm11.67-5.34v4.83q.44.53.96.75.52.22 1.13.22.59 0 1.06-.22.47-.22.8-.67.33-.45.51-1.14t.18-1.62q0-.95-.15-1.6-.16-.66-.44-1.07-.28-.41-.69-.6-.4-.19-.92-.19-.8 0-1.37.35-.57.34-1.07.96Zm-.35-2.68.21 1q.66-.75 1.5-1.21.84-.46 1.98-.46.88 0 1.61.36.73.37 1.26 1.07.53.7.82 1.72.29 1.03.29 2.35 0 1.21-.33 2.24-.32 1.02-.93 1.78-.6.76-1.46 1.18-.85.43-1.91.43-.91 0-1.55-.28t-1.14-.77v4.41h-2.6V85.27h1.59q.5 0 .66.47Zm9.71-5.3h2.6v15.6h-2.6v-15.6Zm9.96 4.66q1.2 0 2.18.39.98.39 1.68 1.1.7.71 1.07 1.74.38 1.03.38 2.3 0 1.28-.38 2.31-.37 1.03-1.07 1.76-.7.72-1.68 1.11-.98.39-2.18.39-1.21 0-2.2-.39-.98-.39-1.68-1.11-.7-.73-1.08-1.76-.39-1.03-.39-2.31 0-1.27.39-2.3.38-1.03 1.08-1.74.7-.71 1.68-1.1.99-.39 2.2-.39Zm0 9.1q1.34 0 1.99-.9.64-.9.64-2.65 0-1.74-.64-2.65-.65-.92-1.99-.92-1.37 0-2.02.92-.66.92-.66 2.65 0 1.74.66 2.64.65.91 2.02.91Zm12.99-.94v-1.82q-1.13.05-1.89.2-.77.14-1.23.36-.46.22-.66.51-.2.3-.2.64 0 .68.4.98.41.29 1.06.29.79 0 1.38-.29.58-.28 1.14-.87Zm-5.48-5.66-.47-.83q1.86-1.7 4.48-1.7.94 0 1.69.31.74.31 1.26.86.51.55.78 1.32.27.76.27 1.68v6.8h-1.18q-.37 0-.57-.11-.2-.11-.31-.45l-.23-.77q-.41.36-.8.64-.39.28-.81.47-.42.19-.9.29-.47.1-1.05.1-.68 0-1.26-.19-.58-.18-1-.55-.42-.36-.65-.91-.23-.55-.23-1.27 0-.41.14-.81.13-.41.44-.78.31-.36.81-.69.49-.33 1.21-.57.72-.24 1.67-.39.96-.15 2.19-.18v-.63q0-1.09-.47-1.61-.46-.52-1.33-.52-.63 0-1.04.15-.42.15-.73.33-.32.19-.58.33-.25.15-.57.15-.27 0-.46-.14t-.3-.33Zm17.21 5.25v-4.83q-.45-.54-.97-.76-.52-.22-1.11-.22-.59 0-1.06.22-.48.22-.81.67-.34.44-.52 1.13t-.18 1.62q0 .95.16 1.61.15.65.43 1.07.29.41.7.6.4.18.91.18.81 0 1.37-.34.57-.33 1.08-.95Zm0-12.41h2.59v15.6h-1.59q-.51 0-.65-.47l-.22-1.04q-.65.74-1.49 1.21-.85.46-1.97.46-.89 0-1.62-.37-.74-.37-1.27-1.07-.53-.69-.81-1.72-.29-1.03-.29-2.36 0-1.19.32-2.22.33-1.03.94-1.79.61-.75 1.46-1.18.85-.42 1.91-.42.9 0 1.54.28t1.15.77v-5.68Z"/></svg>